<?xml version="1.0" encoding="UTF-8"?>
<svg id="Layer_2" data-name="Layer 2" xmlns="http://www.w3.org/2000/svg" viewBox="0 0 48.54 92.59">
  <g id="Layer_1-2" data-name="Layer 1">
    <path d="m38.75,0c1.23,0,2.45.38,3.64,1.12,1.19.75,2.25,1.7,3.17,2.84.93,1.15,1.65,2.43,2.18,3.84.53,1.41.79,2.73.79,3.97v28.57c0,1.15-.62,2.18-1.85,3.11-1.24.93-2.25,1.48-3.04,1.65.79.26,1.81.95,3.04,2.05,1.23,1.1,1.85,2.27,1.85,3.5v29.76c0,1.24-.26,2.58-.79,4.03-.53,1.45-1.26,2.78-2.18,3.97s-1.98,2.18-3.17,2.98-2.4,1.19-3.64,1.19H9.79c-1.24,0-2.45-.4-3.64-1.19s-2.25-1.79-3.17-2.98-1.65-2.51-2.18-3.97c-.53-1.46-.79-2.8-.79-4.03v-29.76c0-1.23.62-2.4,1.85-3.5,1.23-1.1,2.25-1.79,3.04-2.05-.79-.18-1.81-.73-3.04-1.65-1.24-.93-1.85-1.96-1.85-3.11V11.77c0-1.23.26-2.56.79-3.97.53-1.41,1.26-2.69,2.18-3.84.93-1.15,1.98-2.09,3.17-2.84,1.19-.75,2.4-1.12,3.64-1.12h28.97Zm-21.82,41.53l14.68-6.61v-17.99h-14.68v24.6Zm0,34.13h14.68v-23.81l-14.68,6.61v17.19Z"/>
  </g>
</svg>