<?xml version="1.0" encoding="UTF-8"?>
<svg id="Layer_2" data-name="Layer 2" xmlns="http://www.w3.org/2000/svg" viewBox="0 0 48.54 92.59">
  <g id="Layer_1-2" data-name="Layer 1">
    <path d="m18.78,16.93c-.44,0-.86.18-1.26.53-.4.35-.6.75-.6,1.19v9.79c0,.88.35,1.59,1.06,2.12l28.44,21.69c.44.44.9.88,1.39,1.32.48.44.73.93.73,1.46v26.72c0,1.15-.22,2.36-.66,3.64-.44,1.28-1.04,2.45-1.79,3.5-.75,1.06-1.61,1.94-2.58,2.65-.97.71-2.03,1.06-3.17,1.06H8.2c-1.15,0-2.21-.35-3.17-1.06-.97-.7-1.83-1.59-2.58-2.65-.75-1.06-1.35-2.23-1.79-3.5-.44-1.28-.66-2.49-.66-3.64v-15.21h16.93v7.54c0,.44.18.82.53,1.12.35.31.75.46,1.19.46h10.85c.44,0,.9-.18,1.39-.53.48-.35.73-.75.73-1.19v-10.98c0-.62-.05-1.23-.13-1.85-.09-.62-.4-1.15-.93-1.59L2.12,38.09c-.44-.35-.9-.79-1.39-1.32-.49-.53-.73-1.1-.73-1.72V10.85c0-1.15.22-2.36.66-3.64.44-1.28,1.04-2.45,1.79-3.51.75-1.06,1.61-1.94,2.58-2.65.97-.7,2.03-1.06,3.17-1.06h40.34v16.93h-29.76Z"/>
  </g>
</svg>