<?xml version="1.0" encoding="UTF-8"?>
<svg id="Layer_2" data-name="Layer 2" xmlns="http://www.w3.org/2000/svg" viewBox="0 0 48.54 92.59">
  <g id="Layer_1-2" data-name="Layer 1">
    <path d="m48.54,80.42c0,1.24-.26,2.58-.79,4.03-.53,1.45-1.26,2.78-2.18,3.97s-1.98,2.18-3.17,2.98-2.4,1.19-3.64,1.19H0l9.79-16.93h21.82v-11.38l-21.82-7.94c-1.15-.44-2.31-1.01-3.5-1.72-1.19-.7-2.25-1.52-3.17-2.45-.93-.93-1.68-1.96-2.25-3.11-.57-1.15-.86-2.29-.86-3.44V12.17c0-1.23.26-2.58.79-4.03.53-1.46,1.26-2.78,2.18-3.97s1.98-2.18,3.17-2.98c1.19-.79,2.4-1.19,3.64-1.19h28.97c1.23,0,2.45.4,3.64,1.19,1.19.79,2.25,1.79,3.17,2.98s1.65,2.51,2.18,3.97c.53,1.46.79,2.8.79,4.03v68.25ZM16.93,16.93v23.81l14.68,5.82v-29.63h-14.68Z"/>
  </g>
</svg>