<svg xmlns="http://www.w3.org/2000/svg" viewBox="0 0 48.54 92.59">
    <path d="m0,12.17c0-1.23.26-2.58.79-4.03.53-1.46,1.26-2.78,2.18-3.97s1.98-2.18,3.17-2.98c1.19-.79,2.4-1.19,3.64-1.19h38.75l-9.79,16.93h-21.82v14.02l21.82,5.29c1.23.26,2.42.75,3.57,1.46,1.15.71,2.18,1.54,3.11,2.51.93.97,1.67,2.03,2.25,3.17.57,1.15.86,2.34.86,3.57v33.46c0,1.24-.26,2.58-.79,4.03-.53,1.45-1.26,2.78-2.18,3.97s-1.98,2.18-3.17,2.98-2.4,1.19-3.64,1.19H9.79c-1.24,0-2.45-.4-3.64-1.19s-2.25-1.79-3.17-2.98-1.65-2.51-2.18-3.97c-.53-1.46-.79-2.8-.79-4.03V12.17Zm31.61,63.49v-22.49l-14.68-5.29v27.78h14.68Z"/>
</svg>