<?xml version="1.0" encoding="UTF-8"?>
<svg id="Layer_2" data-name="Layer 2" xmlns="http://www.w3.org/2000/svg" viewBox="0 0 35.58 92.59">
  <g id="Layer_1-2" data-name="Layer 1">
    <path d="m0,75.66h18.65v-18.65l-10.98-9.26v-16.93l10.98,9.26v-23.15H0L1.98,0h22.75c3.09,0,5.66,1.04,7.74,3.11,2.07,2.07,3.11,4.65,3.11,7.74v31.61c0,.97-.4,1.87-1.19,2.71-.79.84-1.59,1.43-2.38,1.79.79.35,1.59.95,2.38,1.79.79.84,1.19,1.65,1.19,2.45v32.93c0,2.73-1.04,4.83-3.11,6.28-2.07,1.46-4.65,2.18-7.74,2.18H1.98l-1.98-16.93Z"/>
  </g>
</svg>