<?xml version="1.0" encoding="UTF-8"?>
<svg id="Layer_2" data-name="Layer 2" xmlns="http://www.w3.org/2000/svg" viewBox="0 0 48.54 92.59">
  <g id="Layer_1-2" data-name="Layer 1">
    <path d="m48.54,92.59H8.2c-1.15,0-2.21-.35-3.17-1.06-.97-.7-1.83-1.59-2.58-2.65-.75-1.06-1.35-2.23-1.79-3.5-.44-1.28-.66-2.49-.66-3.64v-24.21c0-.62.24-1.19.73-1.72.48-.53.95-.97,1.39-1.32l28.44-21.43c.53-.44.84-.97.93-1.59.09-.62.13-1.23.13-1.85v-10.98c0-.44-.24-.84-.73-1.19-.49-.35-.95-.53-1.39-.53h-10.85c-.44,0-.84.15-1.19.46-.35.31-.53.68-.53,1.12v7.54H0v-15.21c0-1.15.22-2.36.66-3.64.44-1.28,1.04-2.45,1.79-3.51.75-1.06,1.61-1.94,2.58-2.65.97-.7,2.03-1.06,3.17-1.06h32.14c1.15,0,2.2.35,3.17,1.06.97.71,1.83,1.59,2.58,2.65.75,1.06,1.34,2.23,1.79,3.51.44,1.28.66,2.49.66,3.64v26.72c0,.53-.24,1.01-.73,1.46-.49.44-.95.88-1.39,1.32l-28.44,21.69c-.71.53-1.06,1.24-1.06,2.12v9.79c0,.44.2.84.6,1.19.4.35.81.53,1.26.53h29.76v16.93Z"/>
  </g>
</svg>