<?xml version="1.0" encoding="UTF-8"?>
<svg id="Layer_2" data-name="Layer 2" xmlns="http://www.w3.org/2000/svg" viewBox="0 0 41.8 92.59">
  <g id="Layer_1-2" data-name="Layer 1">
    <path d="m0,18.25c0-3.61.26-6.59.79-8.93.53-2.34,1.32-4.21,2.38-5.62,1.06-1.41,2.4-2.38,4.03-2.91,1.63-.53,3.59-.79,5.89-.79h16.93c2.29,0,4.19.26,5.69.79,1.5.53,2.71,1.5,3.64,2.91.93,1.41,1.56,3.29,1.92,5.62.35,2.34.53,5.31.53,8.93v56.08c0,5.91-1.04,10.43-3.11,13.56-2.07,3.13-5.4,4.7-9.99,4.7h-15.61c-4.59,0-7.92-1.56-9.99-4.7-2.07-3.13-3.11-7.65-3.11-13.56V18.25Zm24.87,57.4V16.93h-7.94v58.73h7.94Z"/>
  </g>
</svg>