<?xml version="1.0" encoding="UTF-8"?>
<svg id="Layer_2" data-name="Layer 2" xmlns="http://www.w3.org/2000/svg" viewBox="0 0 208.34 208.34">
  <defs>
    <style>
      .cls-1 {
        fill: #0500fa;
      }
    </style>
  </defs>
  <g id="Layer_1-2" data-name="Layer 1">
    <path class="cls-1" d="m104.17,0C46.64,0,0,46.64,0,104.17s46.64,104.17,104.17,104.17,104.17-46.64,104.17-104.17S161.7,0,104.17,0Zm-31.47,136.61c-2.67-.45-5.32-1.1-8-1.32-5.19-.42-10.41-.83-15.61-.82-8.92,0-17.73,1.27-26.44,3.2-4.03.89-6.54-1.25-6.54-5.4,0-20.8,0-41.61,0-62.41,0-4.39,0-8.78,0-13.17,0-3.08,1.87-5.03,4.93-5.14,1.09-.04,2.18,0,3.45,0v1.78c0,19.36,0,38.71,0,58.07,0,5.32,2.21,9.36,7.04,11.66,1.68.8,3.69,1.18,5.57,1.24,7.36.24,14.58,1.22,21.53,3.73,5.04,1.82,9.63,4.41,13.64,7.99.19.17.44.27.66.4-.07.07-.14.14-.2.2Zm7.13-4.68c0,.2-.03.4-.06.76-1.51-1.32-2.84-2.56-4.26-3.71-7.23-5.85-15.57-9.25-24.66-10.72-4.66-.75-9.4-.98-14.12-1.36-2.83-.23-4.82-2.19-4.82-5.05-.01-24.01-.01-48.02,0-72.03,0-2.92,2.03-5.08,4.94-5.03,10.38.19,20.41,1.92,29.5,7.33,5.18,3.08,9.41,7.17,12.6,12.28.53.85.83,1.98.83,2.98.05,24.84.04,49.69.03,74.53Zm7.42.86v-1.79c0-23.75.06-47.5-.07-71.24-.02-3.44,1.15-6.06,3.19-8.59,6.61-8.21,15.39-12.75,25.51-14.78,4.53-.91,9.2-1.19,13.83-1.57,3.33-.27,5.46,1.92,5.46,5.28,0,23.79,0,47.58,0,71.37,0,3.43-1.93,5.37-5.36,5.43-8.56.14-16.93,1.36-24.96,4.47-6.16,2.39-11.71,5.75-16.45,10.39-.3.29-.63.56-1.16,1.02Zm21.17,1.85c-4.44.3-8.83,1.25-13.25,1.91-.25.04-.5.09-.76.13-.07-.12-.15-.24-.22-.36,2.22-1.58,4.35-3.29,6.67-4.7,5.92-3.61,12.45-5.58,19.28-6.47,3.99-.53,8.04-.57,12.04-1.06,5.65-.69,10.04-5.55,10.37-11.22.04-.74.04-1.49.04-2.24,0-19.09,0-38.18,0-57.27v-1.66c4.72-.52,6.83-.17,8.38,3.57v79.04c-1.83,3.72-4.25,4.08-7.3,3.18-.58-.17-1.2-.23-1.8-.35-11.04-2.32-22.21-3.27-33.46-2.5Zm64.86,26.43c-2.98,4.06-6.03,8.07-9.06,12.09-.15.19-.47.36-.71.36-6.87.02-13.74.02-20.6,0-.26,0-.61-.19-.77-.4-3.05-4.04-6.12-8.06-9.1-12.16-1.69-2.32-1.83-4.89-.51-7.43,1.32-2.54,3.49-3.84,6.37-3.86.74,0,1.48,0,2.29,0v-4.75h-4.64v-4.75h33.36v4.71h-4.7v4.8c.72,0,1.46,0,2.19,0,2.92,0,5.12,1.28,6.47,3.84,1.36,2.6,1.17,5.19-.57,7.56Zm10.25-46.8c-.29.38-.57.55-1.05.53-.97-.03-1.95-.01-3-.01,0,1.13-.02,2.19.01,3.24.02.49-.14.82-.51,1.15-5.95,5.28-12.86,8.47-20.72,9.59-.45.06-.63.23-.73.64-.47,1.95-.96,3.89-1.45,5.89h-4.83c.41-1.9.73-3.78,1.23-5.6,3.52-12.82,10.67-23.05,21.89-30.31,4.06-2.62,8.53-4.3,13.11-5.75,1.5-.47,2.96-1.05,4.44-1.58h.32c-.47,2.14-.96,4.28-1.42,6.42-1.25,5.81-3.64,11.08-7.28,15.79Z"/>
  </g>
</svg>